<svg id="Layer_1" style="enable-background:new 0 0 512 512" version="1.1" width="16" height="16" viewBox="0 0 512 512" xml:space="preserve" xmlns="http://www.w3.org/2000/svg"><style type="text/css" id="style2">.st1{fill:#f4f4f4}.st3{fill:#e91e26}</style><g fill-opacity=".9" id="XMLID_1_" transform="matrix(.684 0 0 .684 3.942 -7.7)"><path id="XMLID_4_" style="fill:#3592c4" d="M0 106.7h170.7v298.7H0z"/><path class="st1" id="XMLID_3_" d="M170.7 106.7h170.7v298.7H170.7z"/><path id="XMLID_2_" style="fill:#d81e34" d="M341.3 106.7H512v298.7H341.3z"/></g><g id="XMLID_1_-5" transform="matrix(.684 0 0 .684 155.873 169.02)"><path class="st3" id="XMLID_6_" d="M0 106.7h120.4v298.7H0z"/><path class="st3" id="XMLID_5_" d="M391.6 106.7H512v298.7H391.6z"/><path class="st1" id="XMLID_4_-7" d="M120.4 106.7h271.1v298.7H120.4z"/><path class="st3" d="m256 145.4-17.8 34.5c-2 3.8-5.6 3.4-9.2 1.3l-12.9-6.9 9.6 53c2 9.7-4.5 9.7-7.6 5.5l-22.4-26.2-3.6 13.3c-.4 1.7-2.3 3.6-5 3.1l-28.4-6.2 7.5 28.2c1.6 6.3 2.8 8.9-1.6 10.5l-10.1 4.9 48.8 41.3c1.9 1.6 2.9 4.4 2.2 6.9l-4.3 14.6 48.7-5.8c1.5 0 4 1.3 4 3.1l-2.2 53.5h8.2l-1.3-53.4c0-1.8 2.2-3.2 3.7-3.2l48.7 5.8-4.3-14.6c-.7-2.5.3-5.4 2.2-6.9l48.8-41.3-10.1-4.9c-4.4-1.7-3.2-4.3-1.6-10.5l7.4-28.2L325 223c-2.8.4-4.6-1.4-5-3.1l-3.6-13.3-22.4 26.2c-3.2 4.2-9.7 4.2-7.6-5.5l9.6-53-12.9 6.9c-3.6 2.1-7.2 2.4-9.2-1.3z" id="XMLID_3_-0"/></g></svg>